<svg width="270" height="196" viewBox="0 0 270 196" fill="none" xmlns="http://www.w3.org/2000/svg">
<g clip-path="url(#clip0_270_33)">
<path d="M0.219797 145.387C2.28797 144.946 4.41118 145.136 6.48852 145.427C8.32282 145.691 10.1571 146.048 12.0281 146.171C14.6764 146.359 17.3322 145.921 19.7638 144.896C22.1954 143.87 24.3289 142.288 25.978 140.288C28.6929 139.944 31.4454 139.98 34.1498 140.394C30.054 141.502 26.5646 144.093 24.4142 147.621C23.0245 149.912 22.2492 152.498 22.158 155.148C22.1573 155.175 22.163 155.202 22.1747 155.226C22.1864 155.251 22.2037 155.272 22.2254 155.289C22.2471 155.306 22.2726 155.318 22.2998 155.325C22.3271 155.331 22.3555 155.331 22.3827 155.325C23.7946 154.892 25.1292 154.255 26.3403 153.434C28.4956 151.928 30.3374 150.046 31.7698 147.886C33.2683 145.589 34.5792 143.185 35.6906 140.694C35.6922 140.69 35.6931 140.687 35.6931 140.683C35.6931 140.679 35.6922 140.675 35.6906 140.672C39.347 141.425 42.8187 142.846 45.9168 144.858L46.8615 145.66C48.4362 146.959 50.0867 148.17 51.8049 149.287C50.4028 148.944 48.9705 148.727 47.5264 148.639C44.1174 148.43 40.7014 148.929 37.5111 150.102C34.3353 151.281 31.4549 153.092 29.0596 155.417C29.035 155.442 29.0185 155.474 29.0119 155.508C29.0053 155.542 29.009 155.577 29.0225 155.609C29.036 155.641 29.0588 155.668 29.0881 155.688C29.1175 155.708 29.1521 155.72 29.188 155.721C31.2745 155.682 33.3656 155.637 35.4613 155.602C37.2956 155.563 39.1574 155.554 41.0009 155.47C42.798 155.426 44.5828 155.172 46.3158 154.712C48.9664 153.954 51.4839 152.337 52.6441 149.864L52.7771 149.9C56.3052 152.089 60.0844 153.88 64.0397 155.236C64.4983 155.391 64.6863 154.712 64.2461 154.558C60.7659 153.366 57.4234 151.832 54.2721 149.979C53.9511 149.79 53.6301 149.596 53.3228 149.402C53.5705 147.502 53.7814 145.607 53.9006 143.695C54.0069 141.898 53.9316 140.096 53.6759 138.314C53.3788 136.538 52.871 134.801 52.1626 133.136C50.7869 129.791 48.9939 126.552 48.494 122.947C48.4665 122.758 48.196 122.789 48.1409 122.947C47.4315 124.931 46.9592 126.986 46.7331 129.073C46.3379 132.806 46.6928 136.578 47.7786 140.183C48.6713 143.156 50.0656 145.968 51.9058 148.507C50.0075 147.255 48.1955 145.886 46.4809 144.409C46.4619 144.385 46.4404 144.363 46.4167 144.343L46.3754 144.321C43.846 142.13 41.5425 139.709 39.4968 137.093C38.7508 136.136 38.04 135.156 37.3644 134.154C38.2747 132.675 39.0334 131.115 39.6298 129.496C40.8037 126.277 41.363 122.88 41.2806 119.47C41.2011 116.067 40.4592 112.709 39.0932 109.568C39.077 109.542 39.0539 109.52 39.0262 109.504C38.9984 109.489 38.967 109.481 38.935 109.481C38.903 109.481 38.8716 109.489 38.8439 109.504C38.8161 109.52 38.793 109.542 38.7768 109.568C37.9841 111.291 37.328 113.069 36.8141 114.887C35.9101 118.107 35.4476 121.427 35.4384 124.763C35.4438 127.321 35.7188 129.873 36.2592 132.378C35.1143 130.523 34.0942 128.599 33.2051 126.618C32.797 124.97 32.4989 123.295 32.2146 121.621C31.5818 117.945 30.9627 114.2 29.2522 110.82C27.849 108.043 25.6295 105.531 22.6533 104.249C22.6225 104.231 22.5868 104.222 22.5506 104.223C22.5145 104.224 22.4795 104.235 22.4501 104.256C22.4207 104.276 22.3981 104.304 22.3853 104.337C22.3725 104.369 22.37 104.405 22.3782 104.438C22.7725 106.391 23.1715 108.338 23.6438 110.273C24.3723 113.547 25.4862 116.73 26.9639 119.761C28.3388 122.563 30.2687 125.081 32.6457 127.173C33.04 128.055 33.4573 128.897 33.9067 129.743C34.4616 130.805 35.0578 131.849 35.6952 132.867C34.8394 132.221 33.9436 131.625 33.0125 131.082C30.2589 129.476 27.2414 128.33 24.0886 127.693C20.9459 127.059 17.7124 126.953 14.5319 127.381C14.3577 127.403 14.3714 127.623 14.4815 127.698L19.7964 131.523C21.0979 132.536 22.4915 133.434 23.9602 134.207C25.3018 134.842 26.7274 135.297 28.1975 135.56C31.1373 136.101 34.1756 135.847 36.9746 134.828C38.8956 137.643 41.0964 140.271 43.546 142.677C42.7435 142.267 41.9226 141.888 41.0834 141.553C39.2247 140.805 37.2897 140.245 35.31 139.883C32.1723 139.311 28.9593 139.229 25.7945 139.641C20.5704 137.332 14.6106 137.091 9.20329 138.971C5.65119 140.221 2.49299 142.327 0.0317814 145.087C0.00257953 145.116 -0.0159017 145.153 -0.0207552 145.193C-0.0256088 145.233 -0.0165594 145.273 0.00496948 145.307C0.0264984 145.342 0.0592858 145.368 0.0981744 145.382C0.137063 145.397 0.179847 145.399 0.219797 145.387Z" fill="#D2D2F7"/>
<path d="M128.836 182.696C130.904 182.255 133.027 182.44 135.105 182.735C136.939 183 138.773 183.352 140.649 183.476C142.452 183.604 144.266 183.444 146.014 183C149.4 182.123 152.406 180.23 154.594 177.597C157.309 177.253 160.062 177.288 162.766 177.703C161.501 178.042 160.285 178.529 159.143 179.152C156.61 180.523 154.5 182.515 153.03 184.925C151.639 187.223 150.863 189.817 150.774 192.474C150.774 192.501 150.781 192.528 150.793 192.553C150.805 192.577 150.823 192.599 150.845 192.615C150.867 192.632 150.893 192.644 150.92 192.65C150.947 192.657 150.976 192.657 151.004 192.651C152.413 192.216 153.746 191.579 154.956 190.76C157.113 189.253 158.955 187.37 160.386 185.207C161.889 182.914 163.201 180.511 164.311 178.02C164.313 178.013 164.313 178.005 164.311 177.998C167.968 178.749 171.44 180.17 174.538 182.184C174.849 182.453 175.166 182.722 175.482 182.982C177.054 184.279 178.701 185.488 180.417 186.604C179.016 186.262 177.585 186.045 176.143 185.957C172.732 185.747 169.315 186.246 166.123 187.42C162.947 188.601 160.069 190.415 157.676 192.743C157.651 192.768 157.635 192.799 157.628 192.833C157.621 192.866 157.625 192.901 157.638 192.933C157.651 192.965 157.673 192.992 157.701 193.013C157.73 193.033 157.764 193.045 157.8 193.047L164.073 192.924C165.907 192.889 167.769 192.88 169.613 192.796C171.411 192.749 173.197 192.493 174.932 192.034C177.583 191.276 180.1 189.658 181.265 187.186L181.393 187.221C184.92 189.414 188.7 191.206 192.656 192.563C193.115 192.717 193.303 192.038 192.862 191.884C189.382 190.691 186.039 189.155 182.888 187.301C182.567 187.111 182.251 186.922 181.939 186.723C182.187 184.828 182.421 182.933 182.517 181.021C182.625 179.225 182.551 177.423 182.297 175.64C181.995 173.865 181.488 172.128 180.783 170.462C179.408 167.117 177.61 163.878 177.115 160.269C177.092 160.084 176.817 160.115 176.762 160.269C176.052 162.251 175.581 164.305 175.358 166.39C174.961 170.121 175.316 173.89 176.404 177.491C177.295 180.465 178.69 183.277 180.531 185.816C178.632 184.563 176.82 183.193 175.106 181.713C175.087 181.69 175.066 181.669 175.042 181.651L175.001 181.625C172.473 179.434 170.169 177.015 168.122 174.402C167.375 173.445 166.668 172.467 165.99 171.462C166.899 169.983 167.658 168.424 168.255 166.804C169.432 163.584 169.991 160.186 169.906 156.774C169.827 153.372 169.086 150.013 167.723 146.872C167.706 146.846 167.683 146.824 167.655 146.809C167.627 146.793 167.595 146.785 167.563 146.785C167.53 146.785 167.499 146.793 167.471 146.809C167.443 146.824 167.419 146.846 167.402 146.872C165.204 151.659 164.068 156.834 164.068 162.067C164.062 164.631 164.327 167.188 164.862 169.7C163.719 167.842 162.699 165.917 161.808 163.935C161.399 162.287 161.101 160.613 160.817 158.938C160.184 155.267 159.57 151.521 157.855 148.137C156.451 145.365 154.232 142.849 151.256 141.566C151.225 141.549 151.189 141.541 151.153 141.543C151.117 141.544 151.083 141.557 151.054 141.577C151.025 141.598 151.003 141.626 150.991 141.659C150.979 141.691 150.977 141.727 150.985 141.76C151.38 143.712 151.779 145.66 152.246 147.595C152.98 150.87 154.098 154.055 155.58 157.087C156.958 159.888 158.887 162.405 161.262 164.5C161.656 165.381 162.077 166.237 162.523 167.069C163.082 168.126 163.674 169.171 164.311 170.193C163.456 169.545 162.56 168.948 161.629 168.404C158.875 166.804 155.859 165.662 152.709 165.028C149.565 164.396 146.33 164.29 143.148 164.715C142.978 164.742 142.988 164.958 143.098 165.037L148.413 168.862C149.714 169.876 151.109 170.773 152.581 171.542C154.589 172.491 156.778 173.034 159.013 173.14C161.248 173.245 163.482 172.91 165.577 172.154C167.498 174.958 169.697 177.576 172.144 179.972C171.341 179.562 170.525 179.183 169.681 178.844C167.823 178.096 165.888 177.538 163.908 177.178C160.771 176.603 157.557 176.52 154.392 176.931C149.168 174.628 143.21 174.392 137.806 176.275C134.253 177.526 131.095 179.634 128.634 182.396C128.601 182.425 128.579 182.464 128.573 182.506C128.568 182.549 128.578 182.592 128.602 182.629C128.626 182.665 128.663 182.691 128.706 182.704C128.749 182.716 128.795 182.713 128.836 182.696Z" fill="#D2D2F7"/>
<path d="M189.744 58.2412L170.897 50.1943C166.401 52.5129 161.374 53.7157 156.273 53.6934C141.075 53.6934 128.758 43.4386 128.758 30.7776C128.758 18.1167 141.085 7.86189 156.273 7.86189C171.461 7.86189 183.787 18.1123 183.787 30.7776C183.787 36.2862 181.453 41.3541 177.56 45.2895L189.744 58.2412Z" fill="#D2D2F7"/>
<g style="mix-blend-mode:multiply">
<path d="M90.7934 50.3573L109.632 42.3059C114.126 44.628 119.153 45.8324 124.256 45.8094C139.453 45.8094 151.77 35.5502 151.77 22.8937C151.77 10.2371 139.448 -0.0220642 124.256 -0.0220642C109.063 -0.0220642 96.7411 10.2283 96.7411 22.8937C96.7411 28.3978 99.0753 33.4701 102.969 37.4055L90.7934 50.3573Z" fill="#D2D2F7"/>
</g>
<path d="M101.409 165.196L75.8067 171.842L66.4747 196H28.9219L37.534 147.683C37.534 147.683 50.6813 161.825 100.918 154.448L101.409 165.196Z" fill="#272754"/>
<path d="M102.854 196H66.475L75.807 171.841L101.409 165.2L102.854 196Z" fill="#18183D"/>
<path d="M99.5426 125.56L100.918 154.447C50.6952 161.825 37.5295 147.683 37.5295 147.683L39.3638 137.397L43.0324 116.852C43.0324 116.852 29.1513 79.8348 32.9162 68.7735C32.9297 68.7283 32.9466 68.6842 32.9667 68.6413L33.0079 68.5179C37.0893 57.8136 54.6848 51.8732 54.6848 51.8732C54.6848 51.8732 62.1688 64.8734 71.0926 64.4768C77.5127 64.1992 76.7744 59.1092 76.7744 59.1092L76.5726 55.2621C76.5726 55.2621 90.1969 56.3241 96.1813 65.3979C102.166 74.4716 113.424 125.552 113.424 125.552L99.5426 125.56Z" fill="#4260DA"/>
<path d="M89.6696 79.9451L93.0447 94.4922" stroke="#272754" stroke-width="2.22" stroke-linecap="round" stroke-linejoin="round"/>
<path d="M138.388 129.214C137.76 129.558 137.056 129.757 136.334 129.795C136.875 130.563 137.16 131.471 137.148 132.399C137.136 133.326 136.829 134.227 136.268 134.982C135.707 135.736 134.919 136.308 134.01 136.619C133.101 136.93 132.115 136.967 131.184 136.723L121.311 134.101L119.169 146.339C119.012 147.292 118.74 148.223 118.358 149.115C117.179 151.759 115.45 152.945 113.772 153.425C113.182 153.583 112.559 153.587 111.966 153.437C111.374 153.288 110.834 152.989 110.401 152.572C109.968 152.156 109.659 151.636 109.504 151.066C109.349 150.497 109.355 149.898 109.521 149.331L110.438 146.079C111.269 143.186 110.955 140.099 109.558 137.415L108.943 136.243C107.844 134.143 106.13 132.397 104.013 131.219L100.001 128.451L97.4649 126.689L88.8575 120.779L95.1537 98.8725L100.657 99.1898L113.235 99.9301C118.087 100.218 122.894 100.989 127.58 102.23L137.21 104.786C138.304 105.062 139.263 105.696 139.922 106.58C140.58 107.464 140.896 108.541 140.814 109.625C140.745 110.354 140.493 111.056 140.079 111.67C139.665 112.284 139.102 112.792 138.439 113.151L138.407 113.173C139.242 113.48 139.97 114.009 140.504 114.699C141.038 115.388 141.358 116.209 141.425 117.067C141.493 117.924 141.305 118.782 140.884 119.541C140.463 120.3 139.827 120.928 139.049 121.352C138.934 121.414 138.819 121.471 138.7 121.524C139.364 121.956 139.901 122.544 140.262 123.232C140.624 123.92 140.796 124.685 140.764 125.455C140.732 126.224 140.496 126.974 140.079 127.631C139.661 128.289 139.076 128.834 138.379 129.214H138.388Z" fill="#D2D2F7"/>
<path d="M93.8974 128.808L79.0212 124.86L88.124 93.1876L99.5608 96.224L93.8974 128.808Z" fill="#272754"/>
<path d="M90.8297 15.3183V37.3526C90.8183 41.076 89.3003 44.6491 86.5968 47.3163C83.8932 49.9834 80.2162 51.5354 76.3433 51.6441L76.5314 55.2754L76.7331 59.1226C76.7331 59.1226 77.4714 64.2125 71.0514 64.4902C62.1275 64.8868 54.6436 51.8865 54.6436 51.8865L60.1006 36.9031C59.3813 36.8233 58.6872 36.6002 58.0627 36.2481C57.4381 35.896 56.8968 35.4227 56.4733 34.8584C55.6299 33.7227 55.1041 32.398 54.9462 31.0112C54.734 29.7765 54.8443 28.5105 55.2672 27.327C55.3327 27.1558 55.4077 26.9881 55.4919 26.8246C55.8069 26.1768 56.2959 25.6214 56.9084 25.2155C57.521 24.8097 58.2351 24.568 58.9771 24.5154C59.5999 24.5107 60.2093 24.6893 60.7233 25.0273C61.2373 25.3653 61.6313 25.8464 61.8524 26.406L66.0071 15.5871C71.9181 16.5522 77.93 17.4777 83.8915 16.8783C86.2634 16.6415 88.5947 16.1173 90.8297 15.3183Z" fill="#FFB980"/>
<path d="M83.6159 27.6663L79.7089 39.1946L85.3998 39.1197L83.6159 27.6663Z" fill="#FFA25C"/>
<path d="M101.313 6.456C101.043 7.44276 100.553 8.36144 99.8774 9.1486C97.5266 11.9833 94.3902 14.122 90.8297 15.3182C88.5879 16.1127 86.2505 16.631 83.8731 16.8606C77.9116 17.46 71.918 16.5345 65.9887 15.5694L61.834 26.3883C61.613 25.8287 61.219 25.3476 60.7049 25.0096C60.1909 24.6716 59.5815 24.493 58.9587 24.4977C58.2167 24.5503 57.5026 24.792 56.8901 25.1979C56.2775 25.6037 55.7885 26.1591 55.4735 26.8069C55.3893 26.9704 55.3143 27.1381 55.2488 27.3093L53.5704 20.8268C53.1057 19.2168 52.8364 17.5606 52.7679 15.8911C52.6838 14.2052 53.2141 12.544 54.2675 11.1934C54.9301 10.4414 55.789 9.87238 56.7561 9.54479C57.7232 9.2172 58.7635 9.14282 59.7704 9.32928C59.3439 7.30212 60.8618 5.25733 62.7924 4.32307C64.723 3.38882 66.9884 3.29186 69.162 3.22576L81.2959 2.87321L96.2501 2.43252C97.8459 2.38405 99.671 2.43252 100.712 3.59153C101.03 3.99465 101.25 4.46166 101.354 4.95768C101.458 5.4537 101.444 5.96589 101.313 6.456Z" fill="#272754"/>
<path d="M76.3614 51.6308L76.5494 55.262C68.8041 55.2885 64.8787 46.8405 64.8787 46.8405C66.2517 48.3199 67.9266 49.5124 69.7992 50.344C71.7359 51.1965 73.8414 51.637 75.9716 51.6352H76.3614" fill="#272754"/>
<path d="M83.6159 27.6663L85.3998 39.1197L79.7089 39.1946" stroke="#272754" stroke-width="1.63" stroke-linecap="round" stroke-linejoin="round"/>
<path d="M56.239 29.4951C56.2745 28.8699 56.5356 28.2762 56.9773 27.816C57.1992 27.59 57.4771 27.4217 57.7851 27.3269C58.093 27.2321 58.421 27.2139 58.7382 27.274C59.5407 27.4547 60.0773 28.195 60.3616 28.9398C60.804 30.125 60.804 31.4211 60.3616 32.6063C60.2937 32.8627 60.1682 33.1017 59.9939 33.3066C59.8197 33.5114 59.6008 33.677 59.3527 33.7918C59.0734 33.8669 58.7769 33.8587 58.5025 33.7682C58.2282 33.6777 57.9889 33.5091 57.8165 33.285C57.4796 32.8297 57.3014 32.2836 57.3075 31.7249C57.2758 31.537 57.2923 31.3445 57.3554 31.1641C57.4185 30.9837 57.5264 30.8207 57.6698 30.6893C57.8462 30.5925 58.0524 30.558 58.2525 30.5918C58.4526 30.6256 58.6342 30.7256 58.7658 30.8744C59.0214 31.1792 59.162 31.5582 59.1647 31.9497" stroke="#272754" stroke-width="1.56" stroke-linecap="round" stroke-linejoin="round"/>
<path d="M77.1947 27.7754C77.4605 26.454 76.7406 25.209 75.5868 24.9946C74.433 24.7803 73.2822 25.6778 73.0164 26.9993C72.7506 28.3207 73.4705 29.5657 74.6243 29.7801C75.7781 29.9944 76.9289 29.0969 77.1947 27.7754Z" fill="#272754"/>
<path d="M89.1252 28.506C89.391 27.1845 88.6712 25.9395 87.5174 25.7252C86.3636 25.5109 85.2128 26.4084 84.947 27.7298C84.6812 29.0513 85.401 30.2963 86.5548 30.5106C87.7086 30.7249 88.8594 29.8274 89.1252 28.506Z" fill="#272754"/>
<path d="M76.7831 21.9505C75.6484 21.8643 74.5068 21.9266 73.3896 22.1356C71.8167 22.4353 72.1698 24.8194 73.7519 24.5153C74.647 24.3357 75.5638 24.2764 76.4758 24.3391C78.0763 24.4536 78.3927 22.0695 76.7831 21.9505Z" fill="#272754"/>
<path d="M86.7298 22.4971C87.8664 22.5447 88.991 22.7404 90.0728 23.0788C91.5953 23.5636 90.9395 25.886 89.4079 25.3969C88.5432 25.1143 87.6419 24.9482 86.7298 24.9033C85.1248 24.8284 85.1156 22.4266 86.7298 22.4971Z" fill="#272754"/>
<path d="M75.915 41.7947C77.0468 40.4865 77.1781 38.7979 76.2082 38.023C75.2384 37.2481 73.5347 37.6805 72.4029 38.9887C71.2711 40.2969 71.1399 41.9855 72.1097 42.7604C73.0795 43.5353 74.7832 43.1029 75.915 41.7947Z" fill="white"/>
<path d="M68.0158 39.7191C70.2825 39.7191 72.1201 37.9532 72.1201 35.7749C72.1201 33.5966 70.2825 31.8308 68.0158 31.8308C65.7491 31.8308 63.9116 33.5966 63.9116 35.7749C63.9116 37.9532 65.7491 39.7191 68.0158 39.7191Z" fill="#FFA25C"/>
<path d="M89.6699 128.161L87.643 144.144C87.643 144.144 51.1267 145.907 40.1713 138.102C30.7751 131.413 29.2068 88.1461 32.3755 70.7302C33.7971 62.7361 43.1383 58.5055 50.3792 62.6788L50.5076 62.7538C53.3647 64.4725 55.6931 66.8923 57.2528 69.7639C58.8126 72.6354 59.5472 75.8548 59.381 79.09L57.6155 120.365L89.6699 128.161Z" fill="#4260DA"/>
<path d="M89.5182 129.346L87.771 143.118C87.771 143.118 103.936 144.109 109.883 142.518C115.831 140.927 118.404 137.609 117.863 136.67C117.863 136.67 121.852 133.418 120.976 131.598C120.976 131.598 121.683 130.003 120.435 129.342C120.435 129.342 122.852 126.808 120.976 126.402C119.101 125.997 106.385 129.928 102.817 129.487C102.817 129.487 111.869 122.855 111.126 121.312C110.383 119.77 99.5426 125.561 99.5426 125.561L89.5182 129.346Z" fill="#FFB980"/>
<path d="M59.3808 79.0902L57.6153 120.365L89.6697 128.161L87.6428 144.144C87.6428 144.144 51.1264 145.907 40.1711 138.103C38.9971 137.265 37.9424 135.855 37.0069 134" stroke="#272754" stroke-width="2.22" stroke-linecap="round" stroke-linejoin="round"/>
<path d="M120.477 129.24C116.446 131.163 112.24 132.725 107.912 133.907" stroke="#272754" stroke-width="2.22" stroke-linecap="round" stroke-linejoin="round"/>
<path d="M120.921 131.717C117.109 134.43 112.727 136.313 108.081 137.234" stroke="#272754" stroke-width="2.22" stroke-linecap="round" stroke-linejoin="round"/>
<path d="M117.83 136.891C114.626 138.431 111.204 139.51 107.673 140.094" stroke="#272754" stroke-width="2.22" stroke-linecap="round" stroke-linejoin="round"/>
<path d="M230.498 142.778C232.608 145.975 234.491 149.306 236.134 152.747C206.991 159.798 188.648 155.236 182.531 153.148C184.636 137.746 186.754 125.239 186.754 125.239L169.365 124.023C169.365 124.023 180.972 84.418 184.617 80.2579C187.873 76.5561 202.47 72.731 204.707 72.3564L204.464 75.2781C204.464 75.2781 203.02 85.1319 210.426 85.0746C217.832 85.0173 225.605 71.2811 225.605 71.2811C231.566 73.5506 239.279 78.2572 239.279 78.2572L230.498 142.778Z" fill="#FF4C4A"/>
<path d="M246.8 196H211.738L204.703 172.97L181.119 164.05C181.577 160.344 182.036 156.669 182.531 153.148C188.648 155.236 206.991 159.815 236.129 152.747C246.241 173.847 246.8 196 246.8 196Z" fill="#272754"/>
<path d="M211.738 196H178.418C178.569 187.23 179.711 175.468 181.101 164.05L204.685 172.97L211.738 196Z" fill="#18183D"/>
<path d="M194.49 88.3709L189.244 101.305" stroke="#272754" stroke-width="2.22" stroke-linecap="round" stroke-linejoin="round"/>
<path d="M188.626 108.303L185.393 133.744L179.193 134.269L165.041 135.45C159.58 135.905 154.084 135.814 148.642 135.176L137.462 133.854C136.193 133.725 135.012 133.173 134.122 132.294C133.232 131.415 132.691 130.265 132.592 129.042C132.543 128.218 132.703 127.395 133.058 126.644C133.412 125.893 133.951 125.235 134.628 124.728L134.665 124.701C133.679 124.493 132.775 124.019 132.059 123.336C131.343 122.652 130.844 121.787 130.62 120.841C130.397 119.895 130.458 118.908 130.796 117.994C131.135 117.08 131.737 116.278 132.533 115.68C132.647 115.592 132.767 115.51 132.89 115.434C132.075 115.057 131.373 114.488 130.851 113.778C130.329 113.069 130.004 112.243 129.907 111.379C129.81 110.515 129.943 109.642 130.295 108.841C130.647 108.041 131.206 107.34 131.918 106.805C132.559 106.319 133.31 105.984 134.11 105.827C133.368 105.058 132.89 104.089 132.741 103.05C132.592 102.012 132.778 100.955 133.275 100.021C133.772 99.0882 134.556 98.3245 135.52 97.8336C136.484 97.3428 137.581 97.1486 138.664 97.2773L150.128 98.5994L150.399 84.6075C150.407 83.5198 150.551 82.437 150.825 81.3817C151.687 78.2661 153.407 76.6443 155.209 75.8379C155.672 75.6284 156.174 75.5124 156.685 75.4973C157.197 75.4821 157.706 75.568 158.181 75.7497C158.992 76.0541 159.676 76.6084 160.125 77.3261C160.574 78.0438 160.763 78.8842 160.662 79.7159L160.203 83.4926C159.776 86.8534 160.658 90.2472 162.679 93.0203L163.569 94.2277C165.153 96.4056 167.366 98.0907 169.934 99.0753L174.877 101.508L178.009 103.05L188.626 108.303Z" fill="white" stroke="#272754" stroke-width="1.97" stroke-linecap="round" stroke-linejoin="round"/>
<path d="M181.609 100.142L198.888 102.169L194.215 138.949L180.935 137.393L181.609 100.142Z" fill="#272754"/>
<path d="M150.128 98.6169L156.195 99.322" stroke="#272754" stroke-width="1.97" stroke-linecap="round" stroke-linejoin="round"/>
<path d="M134.11 105.822L140.099 106.492" stroke="#272754" stroke-width="1.97" stroke-linecap="round" stroke-linejoin="round"/>
<path d="M132.89 115.429L139.017 115.923" stroke="#272754" stroke-width="1.97" stroke-linecap="round" stroke-linejoin="round"/>
<path d="M134.629 124.723L139.081 124.93" stroke="#272754" stroke-width="1.97" stroke-linecap="round" stroke-linejoin="round"/>
<path d="M183.15 130.175L183.884 143.633C183.884 143.633 223.89 145.942 230.498 142.778C237.106 139.614 255.293 87.591 239.294 78.2572C222.601 68.5048 217.433 127.491 217.433 127.491L183.15 130.175Z" fill="#FF4C4A"/>
<path d="M183.329 133.458L174.946 130.307C174.946 130.307 167.256 125.627 164.619 126.645C161.982 127.663 170.663 133.255 170.663 133.255C170.663 133.255 157.071 133.387 153.173 132.607C149.275 131.827 153.173 136.027 153.173 136.027C153.173 136.027 150.719 136.829 151.852 138.411C152.985 139.993 154.117 139.883 154.117 139.883C154.117 139.883 151.756 140.231 151.852 141.315C151.948 142.399 155.379 143.285 158.671 143.783C158.671 143.783 155.516 143.955 155.649 144.951C155.782 145.947 161.4 148.547 183.916 143.219L183.329 133.458Z" fill="#FFB980"/>
<path d="M153.466 136.146C157.399 136.988 161.426 137.358 165.453 137.248" stroke="#272754" stroke-width="2.22" stroke-linecap="round" stroke-linejoin="round"/>
<path d="M154.053 139.989C157.604 140.575 161.211 140.794 164.811 140.641" stroke="#272754" stroke-width="2.22" stroke-linecap="round" stroke-linejoin="round"/>
<path d="M158.291 143.902C160.782 144.174 163.295 144.207 165.793 143.999" stroke="#272754" stroke-width="2.22" stroke-linecap="round" stroke-linejoin="round"/>
<path d="M222.244 97.405L217.433 127.491L183.15 130.174L183.884 143.633C183.884 143.633 223.89 145.942 230.498 142.778C231.172 142.461 231.993 141.593 232.901 140.293" stroke="#272754" stroke-width="2.22" stroke-linecap="round" stroke-linejoin="round"/>
<path d="M225.619 71.2855C225.619 71.2855 217.86 85.0129 210.44 85.079C203.02 85.1452 204.479 75.2826 204.479 75.2826L204.722 72.3608L205.089 67.9055C201.942 67.5906 199.007 66.2362 196.784 64.0735C194.561 61.9108 193.188 59.0737 192.9 56.0466L191.524 41.0632L191.551 40.768C191.899 40.9294 192.258 41.0692 192.625 41.1866C195.408 42.068 198.467 41.7507 201.301 41.0059C206.292 39.6875 210.852 37.1718 214.554 33.6949C215.654 37.5377 216.758 41.379 217.865 45.2189C218.163 44.7868 218.564 44.4288 219.034 44.1745C219.504 43.9202 220.031 43.7767 220.57 43.7558C221.342 43.7727 222.095 43.9855 222.754 44.3724C223.413 44.7594 223.954 45.3068 224.321 45.9593C224.52 46.3007 224.681 46.6611 224.803 47.0345C225.112 48.0808 225.168 49.1811 224.968 50.2515C224.741 51.4964 224.248 52.6825 223.52 53.7352C222.792 54.788 221.846 55.6845 220.74 56.3683C221.432 58.466 222.116 60.5592 222.808 62.6569C223.734 65.5272 224.671 68.4034 225.619 71.2855Z" fill="#FFB980"/>
<path d="M224.775 47.0169C224.654 46.6434 224.493 46.283 224.294 45.9416C223.926 45.2891 223.386 44.7417 222.727 44.3547C222.068 43.9678 221.315 43.7551 220.543 43.7381C220.003 43.759 219.477 43.9025 219.007 44.1568C218.536 44.4112 218.136 44.7691 217.837 45.2012C216.733 41.3584 215.63 37.5171 214.526 33.6773C210.825 37.1541 206.264 39.6698 201.273 40.9883C198.439 41.733 195.381 42.0635 192.597 41.1689C192.23 41.0515 191.872 40.9117 191.524 40.7503C189.751 39.8981 188.273 38.5705 187.269 36.9281C186.265 35.2857 185.777 33.3989 185.865 31.4959C185.971 30.0151 186.585 28.411 187.984 27.7676C188.947 27.327 190.066 27.4503 191.125 27.4503C198.105 27.4503 204.181 22.0387 211.156 22.1621C213.991 22.2638 216.721 23.2265 218.951 24.912C221.194 26.5525 222.969 28.7112 224.11 31.1874C226.39 36.1275 226.22 41.8211 224.775 47.0169Z" fill="#272754"/>
<path d="M237.674 50.2691C238.555 51.2039 239.232 52.2983 239.666 53.4881C240.1 54.6778 240.282 55.9389 240.202 57.1973C240.121 58.4557 239.78 59.686 239.198 60.8159C238.616 61.9458 237.805 62.9525 236.812 63.7769C235.82 64.6012 234.666 65.2267 233.418 65.6164C232.17 66.0061 230.854 66.1523 229.547 66.0463C228.239 65.9403 226.967 65.5843 225.805 64.9992C224.643 64.4141 223.615 63.6118 222.78 62.6392C222.087 60.5416 221.404 58.4483 220.711 56.3506C221.817 55.6668 222.764 54.7703 223.492 53.7176C224.219 52.6649 224.712 51.4787 224.94 50.2339C225.14 49.1634 225.084 48.0631 224.774 47.0169C226.219 41.8212 226.389 36.1275 224.128 31.2094C222.986 28.7332 221.211 26.5745 218.969 24.934C219.566 23.8111 220.463 22.8614 221.569 22.1826C222.675 21.5038 223.949 21.1204 225.26 21.0719C226.571 21.0234 227.872 21.3116 229.029 21.9068C230.185 22.5019 231.156 23.3826 231.841 24.4581C233.515 27.1022 233.258 30.425 234.336 33.3203C235.102 35.3607 236.496 37.1058 237.766 38.9038C239.036 40.7018 240.219 42.6364 240.449 44.7914C240.678 46.9464 239.724 49.3569 237.674 50.2691Z" fill="#272754"/>
<path d="M205.074 67.901C205.531 67.9487 205.99 67.9723 206.45 67.9715C206.849 67.9715 207.253 67.9715 207.656 67.9186C209.585 67.7507 211.454 67.1894 213.139 66.2721C214.824 65.3549 216.287 64.1029 217.428 62.5995C217.428 62.5995 214.356 71.0255 204.767 71.5675L205.07 67.901" fill="#272754"/>
<path d="M207.198 42.9582C208.371 42.921 209.544 43.0396 210.683 43.3107C212.283 43.6986 211.797 46.1311 210.183 45.7433C209.27 45.5149 208.329 45.4081 207.386 45.426C205.735 45.4701 205.533 42.9979 207.198 42.9582Z" fill="#272754"/>
<path d="M196.183 43.0816C195.008 43.0732 193.838 43.2215 192.707 43.5223C191.115 43.963 191.661 46.3691 193.266 45.9417C194.173 45.6928 195.111 45.5653 196.054 45.5627C197.705 45.545 197.843 43.0816 196.183 43.0816Z" fill="#272754"/>
<path d="M213.439 58.6861C215.569 58.6861 217.296 57.0268 217.296 54.98C217.296 52.9331 215.569 51.2738 213.439 51.2738C211.309 51.2738 209.582 52.9331 209.582 54.98C209.582 57.0268 211.309 58.6861 213.439 58.6861Z" fill="#FFA25C"/>
<path d="M202.722 61.3216C203.584 63.0843 205.932 63.7542 207.973 62.8331C210.013 61.9121 210.972 59.7483 210.114 57.9856C209.257 56.2228 207.867 57.9459 205.827 58.867C203.786 59.788 201.855 59.5632 202.722 61.3216Z" fill="white"/>
<path d="M203.497 57.4657L198.898 57.3555L200.856 45.9594L203.497 57.4657Z" fill="#FFA25C"/>
<path d="M200.777 46.5981L198.902 57.3553L202.818 57.4699" stroke="#272754" stroke-width="1.61" stroke-linecap="round" stroke-linejoin="round"/>
<path d="M223.926 48.295C223.889 47.6503 223.62 47.0381 223.165 46.5631C222.935 46.3265 222.645 46.1505 222.324 46.0518C222.003 45.9531 221.661 45.9349 221.331 45.999C220.501 46.1885 219.955 46.9509 219.657 47.7177C219.2 48.9399 219.2 50.2766 219.657 51.4988C219.726 51.7626 219.855 52.0086 220.034 52.2195C220.213 52.4304 220.438 52.601 220.693 52.7195C220.981 52.7976 221.287 52.7897 221.571 52.6968C221.854 52.604 222.101 52.4305 222.28 52.1995C222.627 51.7232 222.812 51.1549 222.807 50.5733C222.839 50.3796 222.822 50.1812 222.756 49.9954C222.691 49.8096 222.579 49.6419 222.431 49.5069C222.249 49.4108 222.038 49.3772 221.833 49.4116C221.628 49.446 221.441 49.5465 221.303 49.6964C221.037 50.01 220.891 50.4022 220.89 50.8069" stroke="#272754" stroke-width="1.61" stroke-linecap="round" stroke-linejoin="round"/>
<path d="M192.863 48.2023C193.204 48.49 193.604 48.7049 194.038 48.8329C194.472 48.961 194.929 48.9992 195.379 48.945C195.829 48.8909 196.262 48.7456 196.65 48.5189C197.038 48.2921 197.371 47.989 197.627 47.6294" stroke="#272754" stroke-width="1.61" stroke-linecap="round" stroke-linejoin="round"/>
<path d="M206.308 47.7838C206.649 48.0716 207.049 48.2869 207.483 48.4152C207.916 48.5436 208.373 48.5822 208.824 48.5285C209.274 48.4748 209.707 48.33 210.095 48.1036C210.482 47.8772 210.816 47.5745 211.073 47.2153" stroke="#272754" stroke-width="1.61" stroke-linecap="round" stroke-linejoin="round"/>
<path d="M124.343 75.3354C122.073 76.4724 121.688 79.5351 121.637 80.1609C121.582 79.5351 121.201 76.4724 118.927 75.3354C121.22 74.1984 121.582 71.1312 121.637 70.4878C121.688 71.1312 122.073 74.1984 124.343 75.3354Z" fill="#272753"/>
<path d="M32.6547 40.3272C30.3893 41.4642 30.0041 44.527 29.9536 45.1528C29.894 44.527 29.4951 41.4642 27.2435 40.3272C29.5363 39.1903 29.894 36.1231 29.9536 35.4797C30.0041 36.1231 30.3893 39.1903 32.6547 40.3272Z" fill="#272753"/>
<path d="M256.756 73.0043C254.463 74.1368 254.101 77.1996 254.05 77.8298C253.995 77.1996 253.615 74.1368 251.34 73.0043C253.633 71.8673 253.995 68.8001 254.05 68.1567C254.082 68.8001 254.486 71.8673 256.756 73.0043Z" fill="#272753"/>
<path d="M243.494 72.6339C243.289 72.6339 243.093 72.7119 242.949 72.8508C242.804 72.9896 242.723 73.1779 242.723 73.3743C242.723 73.5707 242.804 73.759 242.949 73.8978C243.093 74.0366 243.289 74.1146 243.494 74.1146C243.698 74.1146 243.894 74.0366 244.038 73.8978C244.183 73.759 244.264 73.5707 244.264 73.3743C244.264 73.1779 244.183 72.9896 244.038 72.8508C243.894 72.7119 243.698 72.6339 243.494 72.6339Z" fill="#272753"/>
<path d="M254.046 64.4858C253.851 64.5002 253.669 64.5847 253.537 64.7223C253.404 64.86 253.33 65.0407 253.33 65.2283C253.33 65.4159 253.404 65.5966 253.537 65.7343C253.669 65.872 253.851 65.9564 254.046 65.9709C254.24 65.9564 254.422 65.872 254.555 65.7343C254.687 65.5966 254.761 65.4159 254.761 65.2283C254.761 65.0407 254.687 64.86 254.555 64.7223C254.422 64.5847 254.24 64.5002 254.046 64.4858Z" fill="#272753"/>
<path d="M35.3425 34.9288C35.1382 34.9288 34.9423 35.0068 34.7978 35.1456C34.6533 35.2844 34.5721 35.4728 34.5721 35.6691C34.5721 35.8655 34.6533 36.0538 34.7978 36.1926C34.9423 36.3315 35.1382 36.4095 35.3425 36.4095C35.5469 36.4095 35.7428 36.3315 35.8873 36.1926C36.0318 36.0538 36.113 35.8655 36.113 35.6691C36.113 35.4728 36.0318 35.2844 35.8873 35.1456C35.7428 35.0068 35.5469 34.9288 35.3425 34.9288Z" fill="#272753"/>
<path d="M40.212 46.4616C40.0077 46.4616 39.8117 46.5396 39.6672 46.6785C39.5228 46.8173 39.4416 47.0056 39.4416 47.202C39.4416 47.3983 39.5228 47.5866 39.6672 47.7255C39.8117 47.8643 40.0077 47.9423 40.212 47.9423C40.4163 47.9423 40.6123 47.8643 40.7568 47.7255C40.9012 47.5866 40.9824 47.3983 40.9824 47.202C40.9824 47.0056 40.9012 46.8173 40.7568 46.6785C40.6123 46.5396 40.4163 46.4616 40.212 46.4616Z" fill="#272753"/>
<path d="M44.7842 37.4012C44.5799 37.4012 44.3839 37.4792 44.2394 37.618C44.095 37.7568 44.0138 37.9451 44.0138 38.1415C44.0138 38.3379 44.095 38.5262 44.2394 38.665C44.3839 38.8039 44.5799 38.8819 44.7842 38.8819C44.9885 38.8819 45.1845 38.8039 45.329 38.665C45.4734 38.5262 45.5546 38.3379 45.5546 38.1415C45.5546 37.9451 45.4734 37.7568 45.329 37.618C45.1845 37.4792 44.9885 37.4012 44.7842 37.4012Z" fill="#272753"/>
<path d="M113.208 78.2881C113.004 78.2881 112.808 78.3661 112.663 78.5049C112.519 78.6437 112.437 78.8321 112.437 79.0284C112.437 79.2248 112.519 79.4131 112.663 79.5519C112.808 79.6908 113.004 79.7688 113.208 79.7688C113.412 79.7688 113.608 79.6908 113.753 79.5519C113.897 79.4131 113.978 79.2248 113.978 79.0284C113.978 78.8321 113.897 78.6437 113.753 78.5049C113.608 78.3661 113.412 78.2881 113.208 78.2881Z" fill="#272753"/>
<path d="M119.491 85.9736C119.296 85.988 119.114 86.0725 118.982 86.2102C118.849 86.3478 118.775 86.5285 118.775 86.7161C118.775 86.9038 118.849 87.0845 118.982 87.2221C119.114 87.3598 119.296 87.4443 119.491 87.4587C119.685 87.4443 119.867 87.3598 120 87.2221C120.133 87.0845 120.206 86.9038 120.206 86.7161C120.206 86.5285 120.133 86.3478 120 86.2102C119.867 86.0725 119.685 85.988 119.491 85.9736Z" fill="#272753"/>
<path d="M19.8696 173.084C17.6043 174.217 17.2191 177.28 17.164 177.932C17.109 177.302 16.7055 174.239 14.4584 173.084C16.7284 171.947 17.109 168.88 17.164 168.237C17.2191 168.889 17.6043 171.956 19.8696 173.084Z" fill="#272753"/>
<path d="M21.8412 181.409C21.6465 181.423 21.4647 181.508 21.3321 181.645C21.1994 181.783 21.1257 181.964 21.1257 182.151C21.1257 182.339 21.1994 182.52 21.3321 182.657C21.4647 182.795 21.6465 182.879 21.8412 182.894C22.0358 182.879 22.2176 182.795 22.3503 182.657C22.4829 182.52 22.5566 182.339 22.5566 182.151C22.5566 181.964 22.4829 181.783 22.3503 181.645C22.2176 181.508 22.0358 181.423 21.8412 181.409Z" fill="#272753"/>
<path d="M15.023 183.731C14.8187 183.731 14.6228 183.809 14.4783 183.948C14.3338 184.087 14.2526 184.275 14.2526 184.472C14.2526 184.668 14.3338 184.856 14.4783 184.995C14.6228 185.134 14.8187 185.212 15.023 185.212C15.2274 185.212 15.4233 185.134 15.5678 184.995C15.7123 184.856 15.7934 184.668 15.7934 184.472C15.7934 184.275 15.7123 184.087 15.5678 183.948C15.4233 183.809 15.2274 183.731 15.023 183.731Z" fill="#272753"/>
<path d="M267.67 81.0027C265.404 82.1397 265.019 85.2025 264.964 85.8282C264.909 85.2025 264.506 82.1397 262.259 81.0027C264.529 79.8657 264.909 76.7986 264.964 76.1552C265.019 76.7986 265.404 79.8657 267.67 81.0027Z" fill="#272753"/>
<path d="M256.994 84.3299C256.8 84.3443 256.618 84.4288 256.485 84.5664C256.353 84.7041 256.279 84.8848 256.279 85.0724C256.279 85.26 256.353 85.4407 256.485 85.5784C256.618 85.7161 256.8 85.8006 256.994 85.815C257.189 85.8006 257.371 85.7161 257.504 85.5784C257.636 85.4407 257.71 85.26 257.71 85.0724C257.71 84.8848 257.636 84.7041 257.504 84.5664C257.371 84.4288 257.189 84.3443 256.994 84.3299Z" fill="#272753"/>
<path d="M252.56 91.6541C252.356 91.6541 252.16 91.7321 252.015 91.871C251.871 92.0098 251.79 92.1981 251.79 92.3945C251.79 92.5908 251.871 92.7791 252.015 92.918C252.16 93.0568 252.356 93.1348 252.56 93.1348C252.765 93.1348 252.96 93.0568 253.105 92.918C253.249 92.7791 253.331 92.5908 253.331 92.3945C253.331 92.1981 253.249 92.0098 253.105 91.871C252.96 91.7321 252.765 91.6541 252.56 91.6541Z" fill="#272753"/>
</g>
<defs>
<clipPath id="clip0_270_33">
<rect width="270" height="196" fill="white"/>
</clipPath>
</defs>
</svg>
